# xmcd CD database file
#
# Track frame offsets:
#	150
#	23396
#	45823
#	63641
#	67546
#
# Disc length: 1208 seconds
#
# Revision: 0
# Processed by: cddbd v1.4PL0 Copyright (c) Steve Scherf et al.
# Submitted via: CD2WAV32(EN) R3.19
#
DISCID=2b04b605
DTITLE=Hanawa - SAGAKEN
DYEAR=1900
DGENRE=
TTITLE0=SAGAKEN
TTITLE1=SAGAKEN_acoustic
TTITLE2=FURUSATO_featuring_cry_sakebi
TTITLE3=SABISIINA
TTITLE4=SAGAKEN_HanawaInaiVersion
EXTD=
EXTT0=
EXTT1=
EXTT2=
EXTT3=
EXTT4=
PLAYORDER=
